<svg width="340" height="80" viewBox="0 0 340 80" fill="none" xmlns="http://www.w3.org/2000/svg">
<path d="M0 0H340V80H0V0Z" fill="#537BA9"/>
<path d="M53.9199 53H59.5719V43.784H65.5119C71.9559 43.784 74.4039 39.716 74.4039 35.54C74.4039 31.364 71.9559 27.296 65.5119 27.296H53.9199V53ZM59.5719 31.688H63.9639C66.5559 31.688 68.9319 32.264 68.9319 35.54C68.9319 38.816 66.5559 39.392 63.9639 39.392H59.5719V31.688Z" fill="white"/>
<path d="M77.9598 53L80.6598 47.312H93.6558L96.1758 53H101.648L90.1638 27.332H84.4758L72.8118 53H77.9598ZM87.4278 32.156L91.6038 42.092H83.0718L87.3918 32.156H87.4278Z" fill="white"/>
<path d="M108.143 53H113.795V32.084H121.895V27.332H99.971V32.048H108.143V53Z" fill="white"/>
<path d="M148.249 41.84L157.933 27.26H150.913L140.869 41.84V27.26H135.109V53H140.869V50.444L144.217 45.8L150.913 53H158.689L148.249 41.84Z" fill="white"/>
<path d="M162.025 53H167.677V27.296H162.025V53Z" fill="white"/>
<path d="M173.255 53H178.619V35H178.691L184.379 46.52H188.735L194.459 34.82H194.531V53H199.823V27.296H192.371L186.539 38.636L180.599 27.296H173.255V53Z" fill="white"/>
<path d="M223.483 52.82V48.068H210.307V27.188H204.763V52.82H223.483Z" fill="white"/>
<path d="M229.343 53L232.043 47.312H245.039L247.559 53H253.031L241.547 27.332H235.859L224.195 53H229.343ZM238.811 32.156L242.987 42.092H234.455L238.775 32.156H238.811Z" fill="white"/>
<path d="M273.142 53.036H277.93V27.224H273.142V43.28L261.658 27.224H255.178V53.036H260.11V35.252L273.142 53.036Z" fill="white"/>
<path d="M282.365 53H293.453C301.301 53 305.117 47.456 305.117 40.004C305.117 31.508 300.113 27.296 293.453 27.296H282.365V53ZM288.017 32.048H292.049C297.629 32.048 299.465 35.36 299.465 40.544C299.465 46.232 296.333 48.248 293.057 48.248H288.017V32.048Z" fill="white"/>
</svg>
